<svg xmlns="http://www.w3.org/2000/svg" viewBox="6651 5326 19.381 5.498">
  <defs>
    <style>
      .cls-1 {
        fill: #bcbec0;
      }
    </style>
  </defs>
  <g id="Group_422" data-name="Group 422" transform="translate(6651 5326)">
    <path id="Path_273" data-name="Path 273" class="cls-1" d="M12.849,5.5A2.749,2.749,0,1,1,15.6,2.749,2.757,2.757,0,0,1,12.849,5.5Zm0-4.124a1.375,1.375,0,1,0,1.375,1.375A1.379,1.379,0,0,0,12.849,1.375Z" transform="translate(-3.159)"/>
    <path id="Path_274" data-name="Path 274" class="cls-1" d="M22.949,5.5A2.749,2.749,0,1,1,25.7,2.749,2.757,2.757,0,0,1,22.949,5.5Zm0-4.124a1.375,1.375,0,1,0,1.375,1.375A1.379,1.379,0,0,0,22.949,1.375Z" transform="translate(-6.317)"/>
    <path id="Path_275" data-name="Path 275" class="cls-1" d="M2.749,5.5A2.749,2.749,0,1,1,5.5,2.749,2.757,2.757,0,0,1,2.749,5.5Zm0-4.124A1.375,1.375,0,1,0,4.124,2.749,1.379,1.379,0,0,0,2.749,1.375Z"/>
  </g>
</svg>
