<svg xmlns="http://www.w3.org/2000/svg" xmlns:xlink="http://www.w3.org/1999/xlink" viewBox="4644 6694 92 92">
  <defs>
    <style>
      .cls-1 {
        fill: url(#linear-gradient);
      }
    </style>
    <linearGradient id="linear-gradient" x1="1.255" y1="-0.366" x2="0" y2="1.133" gradientUnits="objectBoundingBox">
      <stop offset="0" stop-color="#faa32d"/>
      <stop offset="1" stop-color="#c54a6c"/>
    </linearGradient>
  </defs>
  <g id="Group_1385" data-name="Group 1385" transform="translate(4050 6436)">
    <path id="Path_142" data-name="Path 142" class="cls-1" d="M46,92A46,46,0,1,1,92,46,46.135,46.135,0,0,1,46,92ZM46,5.75A40.25,40.25,0,1,0,86.25,46,40.368,40.368,0,0,0,46,5.75Z" transform="translate(594 258)"/>
    <path id="Path_143" data-name="Path 143" class="cls-1" d="M49.727,10.965a2.8,2.8,0,0,0-4.025-.288L23.565,37.7,13.79,27.927a3.157,3.157,0,0,0-4.313.575,2.778,2.778,0,0,0,.288,4.025l11.788,11.5a2.426,2.426,0,0,0,2.013.575,5.33,5.33,0,0,0,2.013-.575L49.152,14.99A3.041,3.041,0,0,0,49.727,10.965Z" transform="translate(610.397 276.648)"/>
  </g>
</svg>
