<svg xmlns="http://www.w3.org/2000/svg" viewBox="1232.725 150 17.08 19.277">
  <defs>
    <style>
      .cls-1 {
        fill: #9a9a9a;
      }
    </style>
  </defs>
  <g id="Group_44" data-name="Group 44" transform="translate(1232.725 150)">
    <path id="Path_51" data-name="Path 51" class="cls-1" d="M23.424,14.691h0a1.032,1.032,0,0,0-.143-.5l-2.142-2.5a.768.768,0,0,0-1-.143c-.071,0-.071.071-.143.143a.65.65,0,0,0,0,.857l1.285,1.428H14.714a.675.675,0,0,0-.714.714v.143a.769.769,0,0,0,.714.571h6.568L20,16.833a.65.65,0,0,0,0,.857c0,.071.071.071.143.143a.7.7,0,0,0,1-.143l2.142-2.5a1.032,1.032,0,0,0,.143-.5Z" transform="translate(-6.344 -4.438)"/>
    <path id="Path_52" data-name="Path 52" class="cls-1" d="M9.084,0H3.57A3.535,3.535,0,0,0,0,3.57V15.707a3.535,3.535,0,0,0,3.57,3.57H9.084a3.535,3.535,0,0,0,3.57-3.57v-.714a.714.714,0,0,0-1.428,0v.714a2.1,2.1,0,0,1-2.142,2.142H3.57a2.1,2.1,0,0,1-2.142-2.142V3.57A2.1,2.1,0,0,1,3.57,1.428H9.084A2.1,2.1,0,0,1,11.226,3.57V6.041a.714.714,0,0,0,1.428,0V3.57A3.535,3.535,0,0,0,9.084,0Z"/>
  </g>
</svg>
