<svg xmlns="http://www.w3.org/2000/svg" viewBox="-984.6 -771.1 20.477 20.477">
  <defs>
    <style>
      .cls-1 {
        fill: none;
        stroke: #27a1c3;
        stroke-linecap: round;
        stroke-linejoin: round;
        stroke-miterlimit: 10;
        stroke-width: 1.2px;
      }
    </style>
  </defs>
  <path id="Path_104" data-name="Path 104" class="cls-1" d="M18.462,8.174h-.987a4.5,4.5,0,0,0-.364-.883l.675-.675a1.725,1.725,0,0,0,0-2.442l-.935-.935a1.725,1.725,0,0,0-2.442,0l-.572.572c-.312-.156-.675-.312-.987-.468V2.615A1.73,1.73,0,0,0,11.136.9h-1.3A1.73,1.73,0,0,0,8.122,2.615v.52a4.766,4.766,0,0,0-1.2.468l-.364-.364a1.725,1.725,0,0,0-2.442,0l-.883.935a1.725,1.725,0,0,0,0,2.442l.26.26a9.813,9.813,0,0,0-.572,1.3H2.615A1.73,1.73,0,0,0,.9,9.889v1.3A1.73,1.73,0,0,0,2.615,12.9h.364a5.807,5.807,0,0,0,.572,1.3l-.312.26a1.725,1.725,0,0,0,0,2.442l.935.935a1.725,1.725,0,0,0,2.442,0l.416-.416a10.107,10.107,0,0,0,1.143.416v.624a1.73,1.73,0,0,0,1.715,1.715h1.3A1.73,1.73,0,0,0,12.9,18.462v-.831a7.361,7.361,0,0,0,.935-.416l.623.624a1.725,1.725,0,0,0,2.442,0l.935-.935a1.725,1.725,0,0,0,0-2.442l-.727-.727a5.773,5.773,0,0,0,.364-.831h.987a1.73,1.73,0,0,0,1.715-1.715v-1.3A1.73,1.73,0,0,0,18.462,8.174ZM10.2,14.617a4.157,4.157,0,1,1,4.157-4.157A4.169,4.169,0,0,1,10.2,14.617Z" transform="translate(-984.9 -771.4)"/>
</svg>
