<svg xmlns="http://www.w3.org/2000/svg" xmlns:xlink="http://www.w3.org/1999/xlink" viewBox="-824 344 159 50.312">
  <defs>
    <style>
      .cls-1 {
        fill: #686868;
      }

      .cls-2 {
        fill: url(#linear-gradient);
      }

      .cls-3 {
        fill: url(#linear-gradient-2);
      }

      .cls-4 {
        fill: url(#linear-gradient-3);
      }

      .cls-5 {
        fill: url(#linear-gradient-4);
      }

      .cls-6 {
        fill: url(#linear-gradient-5);
      }

      .cls-7 {
        fill: url(#linear-gradient-6);
      }
    </style>
    <linearGradient id="linear-gradient" x1="-0.229" y1="4.362" x2="1.228" y2="2.907" gradientUnits="objectBoundingBox">
      <stop offset="0" stop-color="#faa32d"/>
      <stop offset="0.995" stop-color="#c54a6c"/>
    </linearGradient>
    <linearGradient id="linear-gradient-2" x1="-0.228" y1="6.803" x2="1.228" y2="5.347" xlink:href="#linear-gradient"/>
    <linearGradient id="linear-gradient-3" x1="-0.346" y1="9.601" x2="1.417" y2="3.918" xlink:href="#linear-gradient"/>
    <linearGradient id="linear-gradient-4" x1="-0.191" y1="4.81" x2="3.599" y2="1.137" xlink:href="#linear-gradient"/>
    <linearGradient id="linear-gradient-5" x1="-0.063" y1="2.947" x2="0.991" y2="2" xlink:href="#linear-gradient"/>
    <linearGradient id="linear-gradient-6" x1="-0.06" y1="4.279" x2="6.646" y2="1.771" xlink:href="#linear-gradient"/>
  </defs>
  <g id="XMLID_1_" transform="translate(-824 344)">
    <g id="XMLID_17_" transform="translate(50.404)">
      <g id="XMLID_152_" transform="translate(1.075 44.46)">
        <path id="XMLID_211_" class="cls-1" d="M176.043,152.632a.155.155,0,0,1,.119.06l.358.388a2.615,2.615,0,0,1-.717.567,2.709,2.709,0,0,1-1.045.209,2.63,2.63,0,0,1-.985-.179,2.2,2.2,0,0,1-.746-.508,2.27,2.27,0,0,1-.478-.776,2.693,2.693,0,0,1-.149-1.015,2.907,2.907,0,0,1,.179-1.015,1.953,1.953,0,0,1,.508-.776,3,3,0,0,1,.746-.508,2.63,2.63,0,0,1,.985-.179,2.476,2.476,0,0,1,.955.179,2.908,2.908,0,0,1,.717.448l-.3.418c-.03.03-.03.06-.06.06-.03.03-.06.03-.119.03a.11.11,0,0,1-.09-.03c-.03-.03-.09-.03-.119-.06a.653.653,0,0,0-.149-.09,1.456,1.456,0,0,0-.209-.09.6.6,0,0,0-.269-.06c-.119,0-.209-.03-.328-.03a1.337,1.337,0,0,0-.6.119,1.706,1.706,0,0,0-.478.328,1.566,1.566,0,0,0-.3.537,2.566,2.566,0,0,0-.119.717,1.807,1.807,0,0,0,.119.717,1.625,1.625,0,0,0,.328.537,1.061,1.061,0,0,0,.478.328,1.212,1.212,0,0,0,.567.119,1.12,1.12,0,0,0,.328-.03.872.872,0,0,0,.269-.06.894.894,0,0,0,.239-.119,1.245,1.245,0,0,0,.239-.179c.03-.03.06-.03.06-.06C175.983,152.662,176.013,152.632,176.043,152.632Z" transform="translate(-172.4 -148.9)"/>
        <path id="XMLID_208_" class="cls-1" d="M193.057,151.348a2.63,2.63,0,0,1-.179.985,2.264,2.264,0,0,1-1.284,1.284,2.678,2.678,0,0,1-1.015.179,2.789,2.789,0,0,1-1.015-.179,2.264,2.264,0,0,1-1.284-1.284,2.8,2.8,0,0,1,0-1.971,2.264,2.264,0,0,1,1.284-1.284,2.679,2.679,0,0,1,1.015-.179,2.546,2.546,0,0,1,.687.09,3.559,3.559,0,0,1,.6.239,1.519,1.519,0,0,1,.478.388,1.962,1.962,0,0,1,.358.508,3.558,3.558,0,0,1,.239.6A1.385,1.385,0,0,1,193.057,151.348Zm-.926,0a1.807,1.807,0,0,0-.119-.717,1.566,1.566,0,0,0-.3-.537,1.061,1.061,0,0,0-.478-.328,1.469,1.469,0,0,0-.627-.119,1.385,1.385,0,0,0-.627.119,1.364,1.364,0,0,0-.478.328,1.566,1.566,0,0,0-.3.537,2.567,2.567,0,0,0-.119.717,1.807,1.807,0,0,0,.119.717,1.566,1.566,0,0,0,.3.537,1.061,1.061,0,0,0,.478.328,2.125,2.125,0,0,0,.627.119,1.385,1.385,0,0,0,.627-.119,1.364,1.364,0,0,0,.478-.328,1.566,1.566,0,0,0,.3-.537A1.807,1.807,0,0,0,192.131,151.348Z" transform="translate(-183.412 -148.9)"/>
        <path id="XMLID_206_" class="cls-1" d="M211.266,153.121v.746H208.4V149h.9v4.121Z" transform="translate(-197.651 -148.97)"/>
        <path id="XMLID_204_" class="cls-1" d="M224.166,153.121v.746H221.3V149h.9v4.121Z" transform="translate(-206.699 -148.97)"/>
        <path id="XMLID_202_" class="cls-1" d="M235.026,149.717v1.344h1.7v.687h-1.7v1.374h2.15v.717H234.1V149h3.075v.717Z" transform="translate(-215.677 -148.97)"/>
        <path id="XMLID_200_" class="cls-1" d="M250.643,152.632a.155.155,0,0,1,.119.06l.358.388a2.615,2.615,0,0,1-.717.567,2.709,2.709,0,0,1-1.045.209,2.63,2.63,0,0,1-.985-.179,2.205,2.205,0,0,1-.746-.508,2.269,2.269,0,0,1-.478-.776,2.693,2.693,0,0,1-.149-1.015,2.907,2.907,0,0,1,.179-1.015,1.953,1.953,0,0,1,.508-.776,3,3,0,0,1,.746-.508,2.63,2.63,0,0,1,.985-.179,2.476,2.476,0,0,1,.955.179,2.908,2.908,0,0,1,.717.448l-.3.418c-.03.03-.03.06-.06.06-.03.03-.06.03-.119.03a.11.11,0,0,1-.09-.03c-.03-.03-.09-.03-.119-.06a.653.653,0,0,0-.149-.09,1.455,1.455,0,0,0-.209-.09.6.6,0,0,0-.269-.06,1.12,1.12,0,0,0-.328-.03,1.337,1.337,0,0,0-.6.119,1.706,1.706,0,0,0-.478.328,1.566,1.566,0,0,0-.3.537,2.566,2.566,0,0,0-.119.717,1.807,1.807,0,0,0,.119.717,1.625,1.625,0,0,0,.328.537,1.061,1.061,0,0,0,.478.328,1.212,1.212,0,0,0,.567.119,1.12,1.12,0,0,0,.328-.03.872.872,0,0,0,.269-.06.894.894,0,0,0,.239-.119,1.246,1.246,0,0,0,.239-.179c.03-.03.06-.03.06-.06C250.583,152.662,250.613,152.632,250.643,152.632Z" transform="translate(-224.725 -148.9)"/>
        <path id="XMLID_198_" class="cls-1" d="M266.422,149.746h-1.463v4.121h-.9v-4.121H262.6V149h3.852v.746Z" transform="translate(-235.667 -148.97)"/>
        <path id="XMLID_196_" class="cls-1" d="M276.49,163.892a.227.227,0,0,1-.06-.119c0-.03,0-.03.03-.06,0-.03.03-.03.06-.06l.09-.09c.03-.03.06-.09.119-.149l.09-.179a.424.424,0,0,0,.06-.179.508.508,0,0,1-.209-.03.3.3,0,0,1-.149-.119c-.03-.06-.06-.09-.09-.149a.443.443,0,0,1-.03-.209.379.379,0,0,1,.03-.179c.03-.06.06-.09.09-.149a.654.654,0,0,1,.149-.09.443.443,0,0,1,.209-.03.7.7,0,0,1,.239.06.3.3,0,0,1,.149.119l.09.179a.508.508,0,0,1,.03.209,1.269,1.269,0,0,1-.06.328,1.826,1.826,0,0,1-.149.358,2.492,2.492,0,0,1-.239.358,1.566,1.566,0,0,1-.328.3Z" transform="translate(-245.347 -158.159)"/>
        <path id="XMLID_194_" class="cls-1" d="M292.843,152.632a.155.155,0,0,1,.119.06l.358.388a2.615,2.615,0,0,1-.717.567,2.709,2.709,0,0,1-1.045.209,2.63,2.63,0,0,1-.985-.179,2.205,2.205,0,0,1-.746-.508,2.27,2.27,0,0,1-.478-.776,2.693,2.693,0,0,1-.149-1.015,2.907,2.907,0,0,1,.179-1.015,1.952,1.952,0,0,1,.508-.776,2.543,2.543,0,0,1,.746-.508,2.63,2.63,0,0,1,.985-.179,2.476,2.476,0,0,1,.955.179,2.908,2.908,0,0,1,.717.448l-.3.418c-.03.03-.03.06-.06.06-.03.03-.06.03-.119.03a.11.11,0,0,1-.09-.03c-.03-.03-.09-.03-.119-.06a.652.652,0,0,0-.149-.09,1.455,1.455,0,0,0-.209-.09.6.6,0,0,0-.269-.06,1.12,1.12,0,0,0-.328-.03,1.337,1.337,0,0,0-.6.119,1.706,1.706,0,0,0-.478.328,1.566,1.566,0,0,0-.3.537,2.566,2.566,0,0,0-.119.717,1.807,1.807,0,0,0,.119.717,1.625,1.625,0,0,0,.328.537,1.061,1.061,0,0,0,.478.328,1.212,1.212,0,0,0,.567.119,1.12,1.12,0,0,0,.328-.03.872.872,0,0,0,.269-.06.894.894,0,0,0,.239-.119,1.246,1.246,0,0,0,.239-.179c.03-.03.06-.03.06-.06C292.783,152.662,292.813,152.632,292.843,152.632Z" transform="translate(-254.325 -148.9)"/>
        <path id="XMLID_191_" class="cls-1" d="M309.757,151.348a2.63,2.63,0,0,1-.179.985,2.264,2.264,0,0,1-1.284,1.284,2.678,2.678,0,0,1-1.015.179,2.789,2.789,0,0,1-1.015-.179,2.264,2.264,0,0,1-1.284-1.284,2.8,2.8,0,0,1,0-1.971,2.264,2.264,0,0,1,1.284-1.284,2.679,2.679,0,0,1,1.015-.179,2.546,2.546,0,0,1,.687.09,3.559,3.559,0,0,1,.6.239,1.519,1.519,0,0,1,.478.388,1.961,1.961,0,0,1,.358.508,3.557,3.557,0,0,1,.239.6A1.079,1.079,0,0,1,309.757,151.348Zm-.926,0a1.807,1.807,0,0,0-.119-.717,1.566,1.566,0,0,0-.3-.537,1.061,1.061,0,0,0-.478-.328,1.468,1.468,0,0,0-.627-.119,1.385,1.385,0,0,0-.627.119,1.364,1.364,0,0,0-.478.328,1.566,1.566,0,0,0-.3.537,2.566,2.566,0,0,0-.119.717,1.807,1.807,0,0,0,.119.717,1.566,1.566,0,0,0,.3.537,1.061,1.061,0,0,0,.478.328,1.469,1.469,0,0,0,.627.119,1.385,1.385,0,0,0,.627-.119,1.364,1.364,0,0,0,.478-.328,1.566,1.566,0,0,0,.3-.537A1.806,1.806,0,0,0,308.831,151.348Z" transform="translate(-265.267 -148.9)"/>
        <path id="XMLID_189_" class="cls-1" d="M329.32,149v4.867h-.478a.379.379,0,0,1-.179-.03.524.524,0,0,1-.149-.119l-2.538-3.255c0,.149.03.3.03.418v2.986H325.2V149h.567c.03,0,.06,0,.06.03.03,0,.03.03.06.03s.03.03.06.09l2.568,3.255a.658.658,0,0,0-.03-.239V149Z" transform="translate(-279.576 -148.97)"/>
        <path id="XMLID_187_" class="cls-1" d="M346.222,149.746h-1.463v4.121h-.9v-4.121H342.4V149h3.852v.746Z" transform="translate(-291.64 -148.97)"/>
        <path id="XMLID_184_" class="cls-1" d="M362.362,153.867h-.806a.343.343,0,0,1-.328-.179l-1.015-1.553c-.03-.06-.09-.09-.119-.119a.443.443,0,0,0-.209-.03H359.5V153.9h-.9V149h1.493a3.25,3.25,0,0,1,.836.09,1.868,1.868,0,0,1,.6.3.976.976,0,0,1,.328.448,1.746,1.746,0,0,1,.119.567,2.612,2.612,0,0,1-.06.478,1.608,1.608,0,0,1-.209.388,1.566,1.566,0,0,1-.328.3,2.058,2.058,0,0,1-.448.209.3.3,0,0,1,.149.119l.149.149Zm-2.329-2.568a1.808,1.808,0,0,0,.448-.06.508.508,0,0,0,.3-.179.705.705,0,0,0,.179-.269,1.074,1.074,0,0,0,.06-.328.719.719,0,0,0-.239-.567,1.236,1.236,0,0,0-.746-.209h-.567V151.3Z" transform="translate(-303.003 -148.97)"/>
        <path id="XMLID_181_" class="cls-1" d="M377.757,151.348a2.63,2.63,0,0,1-.179.985,2.264,2.264,0,0,1-1.284,1.284,2.678,2.678,0,0,1-1.015.179,2.789,2.789,0,0,1-1.015-.179,2.264,2.264,0,0,1-1.284-1.284,2.8,2.8,0,0,1,0-1.971,2.264,2.264,0,0,1,1.284-1.284,2.679,2.679,0,0,1,1.015-.179,2.545,2.545,0,0,1,.687.09,3.558,3.558,0,0,1,.6.239,1.519,1.519,0,0,1,.478.388,1.961,1.961,0,0,1,.358.508,3.56,3.56,0,0,1,.239.6A1.385,1.385,0,0,1,377.757,151.348Zm-.926,0a1.807,1.807,0,0,0-.119-.717,1.566,1.566,0,0,0-.3-.537,1.061,1.061,0,0,0-.478-.328,1.469,1.469,0,0,0-.627-.119,1.385,1.385,0,0,0-.627.119,1.364,1.364,0,0,0-.478.328,1.566,1.566,0,0,0-.3.537,2.566,2.566,0,0,0-.119.717,1.807,1.807,0,0,0,.119.717,1.566,1.566,0,0,0,.3.537,1.061,1.061,0,0,0,.478.328,1.469,1.469,0,0,0,.627.119,1.385,1.385,0,0,0,.627-.119,1.364,1.364,0,0,0,.478-.328,1.566,1.566,0,0,0,.3-.537A1.807,1.807,0,0,0,376.831,151.348Z" transform="translate(-312.963 -148.9)"/>
        <path id="XMLID_179_" class="cls-1" d="M396.066,153.121v.746H393.2V149h.9v4.121Z" transform="translate(-327.272 -148.97)"/>
        <path id="XMLID_177_" class="cls-1" d="M405.39,163.892a.227.227,0,0,1-.06-.119c0-.03,0-.03.03-.06,0-.03.03-.03.06-.06l.09-.09c.03-.03.06-.09.119-.149l.09-.179a.425.425,0,0,0,.06-.179.508.508,0,0,1-.209-.03.3.3,0,0,1-.149-.119c-.03-.06-.06-.09-.09-.149a.443.443,0,0,1-.03-.209.379.379,0,0,1,.03-.179c.03-.06.06-.09.09-.149a.653.653,0,0,1,.149-.09.443.443,0,0,1,.209-.03.7.7,0,0,1,.239.06.3.3,0,0,1,.149.119l.09.179a.508.508,0,0,1,.03.209,1.269,1.269,0,0,1-.06.328,1.826,1.826,0,0,1-.149.358,2.492,2.492,0,0,1-.239.358,1.565,1.565,0,0,1-.328.3Z" transform="translate(-335.759 -158.159)"/>
        <path id="XMLID_175_" class="cls-1" d="M421.743,152.632a.155.155,0,0,1,.119.06l.358.388a2.616,2.616,0,0,1-.717.567,2.709,2.709,0,0,1-1.045.209,2.63,2.63,0,0,1-.985-.179,2.2,2.2,0,0,1-.746-.508,2.269,2.269,0,0,1-.478-.776,2.692,2.692,0,0,1-.149-1.015,2.908,2.908,0,0,1,.179-1.015,1.953,1.953,0,0,1,.508-.776,2.543,2.543,0,0,1,.746-.508,2.63,2.63,0,0,1,.985-.179,2.476,2.476,0,0,1,.956.179,2.908,2.908,0,0,1,.717.448l-.3.418c-.03.03-.03.06-.06.06-.03.03-.06.03-.119.03a.11.11,0,0,1-.09-.03c-.03-.03-.09-.03-.119-.06a.652.652,0,0,0-.149-.09,1.456,1.456,0,0,0-.209-.09.6.6,0,0,0-.269-.06,1.12,1.12,0,0,0-.328-.03,1.337,1.337,0,0,0-.6.119,1.706,1.706,0,0,0-.478.328,1.565,1.565,0,0,0-.3.537,2.566,2.566,0,0,0-.119.717,1.806,1.806,0,0,0,.119.717,1.625,1.625,0,0,0,.328.537,1.061,1.061,0,0,0,.478.328,1.212,1.212,0,0,0,.567.119,1.12,1.12,0,0,0,.328-.03.872.872,0,0,0,.269-.06.894.894,0,0,0,.239-.119,1.245,1.245,0,0,0,.239-.179c.03-.03.06-.03.06-.06C421.683,152.662,421.713,152.632,421.743,152.632Z" transform="translate(-344.737 -148.9)"/>
        <path id="XMLID_172_" class="cls-1" d="M438.657,151.348a2.63,2.63,0,0,1-.179.985,2.264,2.264,0,0,1-1.284,1.284,2.678,2.678,0,0,1-1.015.179,2.789,2.789,0,0,1-1.015-.179,2.264,2.264,0,0,1-1.284-1.284,2.8,2.8,0,0,1,0-1.971,2.264,2.264,0,0,1,1.284-1.284,2.679,2.679,0,0,1,1.015-.179,2.545,2.545,0,0,1,.687.09,3.558,3.558,0,0,1,.6.239,1.519,1.519,0,0,1,.478.388,1.962,1.962,0,0,1,.358.508,3.562,3.562,0,0,1,.239.6A1.079,1.079,0,0,1,438.657,151.348Zm-.926,0a1.807,1.807,0,0,0-.119-.717,1.566,1.566,0,0,0-.3-.537,1.061,1.061,0,0,0-.478-.328,1.469,1.469,0,0,0-.627-.119,1.385,1.385,0,0,0-.627.119,1.364,1.364,0,0,0-.478.328,1.566,1.566,0,0,0-.3.537,2.566,2.566,0,0,0-.119.717,1.807,1.807,0,0,0,.119.717,1.566,1.566,0,0,0,.3.537,1.061,1.061,0,0,0,.478.328,1.469,1.469,0,0,0,.627.119,1.385,1.385,0,0,0,.627-.119,1.364,1.364,0,0,0,.478-.328,1.566,1.566,0,0,0,.3-.537A1.807,1.807,0,0,0,437.731,151.348Z" transform="translate(-355.679 -148.9)"/>
        <path id="XMLID_170_" class="cls-1" d="M458.22,149v4.867h-.478a.379.379,0,0,1-.179-.03.523.523,0,0,1-.149-.119l-2.538-3.255c0,.149.03.3.03.418v2.986H454.1V149h.567c.03,0,.06,0,.06.03.03,0,.03.03.06.03a.23.23,0,0,1,.06.09l2.568,3.255a.658.658,0,0,0-.03-.239V149Z" transform="translate(-369.988 -148.97)"/>
        <path id="XMLID_159_" class="cls-1" d="M476.72,149v4.867h-.478a.379.379,0,0,1-.179-.03.524.524,0,0,1-.149-.119l-2.538-3.255c0,.149.03.3.03.418v2.986H472.6V149h.567c.03,0,.06,0,.06.03.03,0,.03.03.06.03a.23.23,0,0,1,.06.09l2.568,3.255a.658.658,0,0,0-.03-.239V149Z" transform="translate(-382.964 -148.97)"/>
        <path id="XMLID_157_" class="cls-1" d="M492.026,149.717v1.344h1.7v.687h-1.7v1.374h2.15v.717H491.1V149h3.075v.717Z" transform="translate(-395.94 -148.97)"/>
        <path id="XMLID_155_" class="cls-1" d="M507.543,152.632a.155.155,0,0,1,.119.06l.358.388a2.615,2.615,0,0,1-.717.567,2.709,2.709,0,0,1-1.045.209,2.63,2.63,0,0,1-.985-.179,2.205,2.205,0,0,1-.746-.508,2.269,2.269,0,0,1-.478-.776,2.693,2.693,0,0,1-.149-1.015,2.907,2.907,0,0,1,.179-1.015,1.953,1.953,0,0,1,.508-.776,2.544,2.544,0,0,1,.746-.508,2.63,2.63,0,0,1,.985-.179,2.476,2.476,0,0,1,.956.179,2.908,2.908,0,0,1,.717.448l-.3.418c-.03.03-.03.06-.06.06-.03.03-.06.03-.119.03a.11.11,0,0,1-.09-.03c-.03-.03-.09-.03-.119-.06a.652.652,0,0,0-.149-.09,1.456,1.456,0,0,0-.209-.09.6.6,0,0,0-.269-.06,1.12,1.12,0,0,0-.328-.03,1.337,1.337,0,0,0-.6.119,1.706,1.706,0,0,0-.478.328,1.565,1.565,0,0,0-.3.537,2.565,2.565,0,0,0-.119.717,1.806,1.806,0,0,0,.119.717,1.625,1.625,0,0,0,.328.537,1.061,1.061,0,0,0,.478.328,1.212,1.212,0,0,0,.567.119,1.12,1.12,0,0,0,.328-.03.872.872,0,0,0,.269-.06.894.894,0,0,0,.239-.119,1.246,1.246,0,0,0,.239-.179c.03-.03.06-.03.06-.06C507.513,152.662,507.513,152.632,507.543,152.632Z" transform="translate(-404.918 -148.9)"/>
        <path id="XMLID_153_" class="cls-1" d="M523.422,149.746h-1.463v4.121h-.9v-4.121H519.6V149h3.852v.746Z" transform="translate(-415.93 -148.97)"/>
      </g>
      <g id="XMLID_19_">
        <path id="XMLID_149_" class="cls-1" d="M192.9,62.217a1.777,1.777,0,1,1-3.553,0V51.587C187.4,54.454,184.6,56.9,180.206,56.9c-5.733,0-11.406-4.539-11.406-12.391v-.09C168.8,36.6,174.473,32,180.206,32a10.72,10.72,0,0,1,9.137,5.076V34.09A1.771,1.771,0,0,1,191.1,32.3,1.8,1.8,0,0,1,192.9,34.09ZM172.443,44.391v.09c0,5.643,3.941,9.226,8.42,9.226a8.892,8.892,0,0,0,8.629-9.226v-.09a8.884,8.884,0,0,0-8.629-9.2C176.235,35.195,172.443,38.629,172.443,44.391Z" transform="translate(-168.8 -22.445)"/>
        <path id="XMLID_146_" class="cls-1" d="M271.514,57.032c-6.569,0-11.914-5.046-11.914-12.421v-.09c0-6.9,4.837-12.421,11.466-12.421,7.077,0,11.078,5.763,11.078,12.093a1.669,1.669,0,0,1-1.672,1.672H263.183c.508,5.166,4.15,8.092,8.42,8.092a9.832,9.832,0,0,0,6.9-2.777,1.5,1.5,0,0,1,1.015-.418,1.562,1.562,0,0,1,1.583,1.523,1.51,1.51,0,0,1-.567,1.164A12.25,12.25,0,0,1,271.514,57.032Zm7.077-13.825c-.358-4.33-2.866-8.122-7.614-8.122-4.15,0-7.286,3.464-7.763,8.122Z" transform="translate(-232.488 -22.515)"/>
        <path id="XMLID_144_" class="cls-1" d="M345.6,1.792A1.771,1.771,0,0,1,347.362,0a1.8,1.8,0,0,1,1.792,1.792V32.367a1.735,1.735,0,0,1-1.762,1.792,1.76,1.76,0,0,1-1.792-1.792Z" transform="translate(-292.81)"/>
        <path id="XMLID_141_" class="cls-1" d="M373.6,4.281A1.91,1.91,0,0,1,375.69,2.4a1.938,1.938,0,0,1,2.12,1.881v.6a2.118,2.118,0,0,1-4.21,0Zm.328,9.047a1.791,1.791,0,0,1,1.762-1.792,1.76,1.76,0,0,1,1.792,1.792V34.08a1.735,1.735,0,0,1-1.762,1.792,1.76,1.76,0,0,1-1.792-1.792Z" transform="translate(-312.449 -1.683)"/>
        <path id="XMLID_29_" class="cls-1" d="M396.857,54.067a1.6,1.6,0,0,1-.657-1.284,1.543,1.543,0,0,1,1.583-1.523,1.362,1.362,0,0,1,.866.269,13.345,13.345,0,0,0,7.584,2.538c2.866,0,4.957-1.493,4.957-3.792v-.09c0-2.389-2.807-3.314-5.972-4.21-3.732-1.075-7.913-2.359-7.913-6.748v-.09c0-4.121,3.434-6.838,8.122-6.838a16.494,16.494,0,0,1,7.614,2.03,1.73,1.73,0,0,1,.866,1.493,1.543,1.543,0,0,1-1.583,1.523,1.75,1.75,0,0,1-.776-.179,12.842,12.842,0,0,0-6.24-1.851c-2.807,0-4.628,1.493-4.628,3.464v.09c0,2.269,2.956,3.135,6.151,4.121,3.7,1.1,7.674,2.538,7.674,6.838v.09c0,4.539-3.732,7.166-8.51,7.166A16.532,16.532,0,0,1,396.857,54.067Z" transform="translate(-328.301 -22.656)"/>
        <path id="XMLID_20_" class="cls-1" d="M462.1,49.958v-.09c0-5.046,4.15-7.7,10.212-7.7a25.471,25.471,0,0,1,7.345,1.015v-.836c0-4.3-2.628-6.509-7.106-6.509a14.97,14.97,0,0,0-6.181,1.344,1.883,1.883,0,0,1-.657.149,1.582,1.582,0,0,1-1.583-1.523,1.658,1.658,0,0,1,.985-1.493,18.846,18.846,0,0,1,7.823-1.612c3.374,0,5.972.866,7.7,2.628,1.612,1.612,2.448,3.941,2.448,6.987V55.393a1.7,1.7,0,0,1-1.7,1.762,1.64,1.64,0,0,1-1.7-1.672V53.3a10.477,10.477,0,0,1-8.629,4.121C466.579,57.393,462.1,54.855,462.1,49.958Zm17.617-1.851v-2.3a25.019,25.019,0,0,0-7.017-1.015c-4.479,0-6.987,1.941-6.987,4.957v.09c0,3.016,2.777,4.748,6,4.748C476.1,54.586,479.717,51.9,479.717,48.107Z" transform="translate(-374.524 -22.936)"/>
      </g>
    </g>
    <g id="Layer_12_2_" transform="translate(0 4.001)">
      <g id="XMLID_3_">
        <path id="XMLID_14_" class="cls-2" d="M47.291,71.812a10.45,10.45,0,1,0-7.345-3.075A10.358,10.358,0,0,0,47.291,71.812ZM41.439,55.539a8.29,8.29,0,1,1-2.419,5.852A8.233,8.233,0,0,1,41.439,55.539Z" transform="translate(-25.88 -39.773)"/>
        <path id="XMLID_13_" class="cls-3" d="M57.952,77.9a5.725,5.725,0,0,0,4.121-1.732A5.83,5.83,0,0,0,63.8,72.052a5.725,5.725,0,0,0-1.732-4.121A5.83,5.83,0,0,0,57.952,66.2a5.725,5.725,0,0,0-4.121,1.732A5.829,5.829,0,0,0,52.1,72.052,5.914,5.914,0,0,0,57.952,77.9Z" transform="translate(-36.542 -50.435)"/>
        <path id="XMLID_12_" class="cls-4" d="M57.639,144.343a18.316,18.316,0,0,1-9.047.06,1.742,1.742,0,1,0-.866,3.374,21.952,21.952,0,0,0,5.4.657,23.074,23.074,0,0,0,5.375-.717,1.749,1.749,0,0,0,1.254-2.12A1.7,1.7,0,0,0,57.639,144.343Z" transform="translate(-32.555 -105.198)"/>
        <path id="XMLID_11_" class="cls-5" d="M17.565,118.76a17.4,17.4,0,0,1-3.553-2.866,18.279,18.279,0,0,1-2.717-3.673,1.75,1.75,0,0,0-2.389-.657,1.725,1.725,0,0,0-.657,2.389,21.56,21.56,0,0,0,7.435,7.823,1.777,1.777,0,0,0,1.881-3.016Z" transform="translate(-5.62 -82.094)"/>
        <path id="XMLID_10_" class="cls-6" d="M54.926,19.67a21.363,21.363,0,0,0-21.14-5.4,21.648,21.648,0,0,0-6.9,3.434,1.757,1.757,0,0,0,.269,2.956,1.817,1.817,0,0,0,1.821-.149,18.02,18.02,0,0,1,10.809-3.613,17.749,17.749,0,0,1,12.66,5.255,17.953,17.953,0,0,1,3.374,20.692A18.387,18.387,0,0,1,53.4,46.484a1.676,1.676,0,0,1-2.747-.09l-1.135-1.553a1.7,1.7,0,0,0-2.448-.358,1.747,1.747,0,0,0-.358,2.419l3.464,4.748a1.756,1.756,0,0,0,2.448.358,21.483,21.483,0,0,0,2.3-32.337Z" transform="translate(-18.376 -13.4)"/>
        <path id="XMLID_9_" class="cls-7" d="M4.026,57.058a18.079,18.079,0,0,1,.418-10.3,17.2,17.2,0,0,1,2.837-5.2,1.744,1.744,0,0,0-2.747-2.15A21.981,21.981,0,0,0,1.16,45.622a21.577,21.577,0,0,0-.508,12.3,1.742,1.742,0,0,0,3.374-.866Z" transform="translate(0.007 -31.17)"/>
      </g>
    </g>
  </g>
</svg>
