<?xml version="1.0" encoding="iso-8859-1"?>
<!-- Generator: Adobe Illustrator 19.0.0, SVG Export Plug-In . SVG Version: 6.00 Build 0)  -->
<svg xmlns="http://www.w3.org/2000/svg" xmlns:xlink="http://www.w3.org/1999/xlink" version="1.1" id="Capa_1" x="0px" y="0px" viewBox="0 0 512 512" style="enable-background:new 0 0 512 512;" xml:space="preserve" width="512px" height="512px">
<g>
	<g>
		<path d="M467,211h-18.58c1.665-4.695,2.58-9.742,2.58-15c0-19.555-12.541-36.228-30-42.42V105    c0-36.991-26.925-67.792-62.202-73.885C352.931,13.078,335.969,0,316,0H196c-19.969,0-36.931,13.078-42.798,31.115    C117.925,37.208,91,68.009,91,105v48.58c-17.459,6.192-30,22.865-30,42.42c0,5.258,0.915,10.305,2.58,15H45    c-24.813,0-45,20.187-45,45c0,20.209,13.391,37.346,31.765,43.011l22.026,148.596c2.553,17.87,11.47,34.225,25.106,46.052    C92.535,505.486,109.986,512,128.038,512h255.924c18.052,0,35.503-6.514,49.141-18.341c13.637-11.827,22.554-28.182,25.095-45.974    l22.038-148.674C498.609,293.346,512,276.209,512,256C512,231.187,491.813,211,467,211z M406,181c8.271,0,15,6.729,15,15    s-6.729,15-15,15s-15-6.729-15-15S397.729,181,406,181z M196,30h120c8.271,0,15,6.729,15,15s-6.729,15-15,15H196    c-8.271,0-15-6.729-15-15S187.729,30,196,30z M121,105c0-20.723,14.084-38.209,33.181-43.414C160.799,78.212,177.043,90,196,90    h120c18.957,0,35.201-11.788,41.819-28.414C376.916,66.791,391,84.277,391,105v48.58c-17.459,6.192-30,22.865-30,42.42    c0,5.258,0.915,10.305,2.58,15H148.42c1.665-4.695,2.58-9.742,2.58-15c0-19.555-12.541-36.228-30-42.42V105z M106,181    c8.271,0,15,6.729,15,15s-6.729,15-15,15s-15-6.729-15-15S97.729,181,106,181z M428.51,443.364    C425.363,465.39,406.212,482,383.962,482H128.038c-22.25,0-41.401-16.61-44.56-38.714L62.388,301h387.225L428.51,443.364z     M467,271H45c-8.271,0-15-6.729-15-15s6.729-15,15-15h422c8.271,0,15,6.729,15,15S475.271,271,467,271z" fill="#FFFFFF"/>
	</g>
</g>
<g>
	<g>
		<path d="M136,331c-8.284,0-15,6.716-15,15v91c0,8.284,6.716,15,15,15s15-6.716,15-15v-91C151,337.716,144.284,331,136,331z" fill="#FFFFFF"/>
	</g>
</g>
<g>
	<g>
		<path d="M196,331c-8.284,0-15,6.716-15,15v91c0,8.284,6.716,15,15,15s15-6.716,15-15v-91C211,337.716,204.284,331,196,331z" fill="#FFFFFF"/>
	</g>
</g>
<g>
	<g>
		<path d="M256,331c-8.284,0-15,6.716-15,15v91c0,8.284,6.716,15,15,15s15-6.716,15-15v-91C271,337.716,264.284,331,256,331z" fill="#FFFFFF"/>
	</g>
</g>
<g>
	<g>
		<path d="M316,331c-8.284,0-15,6.716-15,15v91c0,8.284,6.716,15,15,15s15-6.716,15-15v-91C331,337.716,324.284,331,316,331z" fill="#FFFFFF"/>
	</g>
</g>
<g>
	<g>
		<path d="M376,331c-8.284,0-15,6.716-15,15v91c0,8.284,6.716,15,15,15s15-6.716,15-15v-91C391,337.716,384.284,331,376,331z" fill="#FFFFFF"/>
	</g>
</g>
<g>
</g>
<g>
</g>
<g>
</g>
<g>
</g>
<g>
</g>
<g>
</g>
<g>
</g>
<g>
</g>
<g>
</g>
<g>
</g>
<g>
</g>
<g>
</g>
<g>
</g>
<g>
</g>
<g>
</g>
</svg>
