<?xml version="1.0" encoding="iso-8859-1"?>
<!-- Generator: Adobe Illustrator 19.0.0, SVG Export Plug-In . SVG Version: 6.00 Build 0)  -->
<svg xmlns="http://www.w3.org/2000/svg" xmlns:xlink="http://www.w3.org/1999/xlink" version="1.1" id="Capa_1" x="0px" y="0px" viewBox="0 0 512 512" style="enable-background:new 0 0 512 512;" xml:space="preserve" width="512px" height="512px">
<g>
	<g>
		<path d="M360.5,264.321V85c0-24.676-17.507-47.019-49.297-62.914C282.718,7.844,245.179,0,205.5,0S128.282,7.844,99.797,22.086    C68.007,37.981,50.5,60.324,50.5,85v342c0,24.676,17.507,47.019,49.297,62.914C128.282,504.156,165.821,512,205.5,512    c28.053,0,55.172-3.934,78.893-11.393C300.263,507.916,317.913,512,336.5,512c68.925,0,125-56.075,125-125    C461.5,326.282,417.982,275.546,360.5,264.321z M113.213,48.919C137.613,36.719,170.388,30,205.5,30s67.887,6.719,92.287,18.919    C318.577,59.313,330.5,72.465,330.5,85c0,12.535-11.923,25.687-32.713,36.081C273.387,133.281,240.612,140,205.5,140    s-67.887-6.719-92.287-18.919C92.423,110.687,80.5,97.535,80.5,85C80.5,72.465,92.423,59.313,113.213,48.919z M80.5,136.211    c5.683,4.197,12.122,8.116,19.297,11.703C128.282,162.156,165.821,170,205.5,170s77.218-7.844,105.703-22.086    c7.175-3.587,13.614-7.506,19.297-11.703V170.5c0,12.535-11.923,25.687-32.713,36.081c-24.4,12.2-57.175,18.919-92.287,18.919    s-67.887-6.719-92.287-18.919C92.423,196.187,80.5,183.035,80.5,170.5V136.211z M80.5,221.711    c5.683,4.197,12.122,8.116,19.297,11.703C128.282,247.656,165.821,255.5,205.5,255.5s77.218-7.844,105.703-22.086    c7.175-3.587,13.614-7.506,19.297-11.703v40.436c-36.939,1.754-69.726,19.62-91.483,46.707C228.134,310.274,216.89,311,205.5,311    c-35.112,0-67.887-6.719-92.287-18.919C92.423,281.687,80.5,268.535,80.5,256V221.711z M80.5,307.211    c5.683,4.197,12.122,8.116,19.297,11.703C128.282,333.156,165.821,341,205.5,341c5.003,0,9.982-0.137,14.928-0.385    c-5.755,14.35-8.928,30.003-8.928,46.385c0,3.168,0.121,6.309,0.353,9.418c-2.116,0.05-4.235,0.082-6.353,0.082    c-35.112,0-67.887-6.719-92.287-18.919C92.423,367.187,80.5,354.035,80.5,341.5V307.211z M205.5,482    c-35.112,0-67.887-6.719-92.287-18.919C92.423,452.687,80.5,439.535,80.5,427v-34.289c5.683,4.197,12.122,8.116,19.297,11.703    C128.282,418.656,165.821,426.5,205.5,426.5c4.109,0,8.223-0.087,12.317-0.256c6.611,19.941,18.114,37.67,33.084,51.759    C236.525,480.634,221.214,482,205.5,482z M336.5,482c-52.383,0-95-42.617-95-95s42.617-95,95-95s95,42.617,95,95    S388.883,482,336.5,482z" fill="#FFFFFF"/>
	</g>
</g>
<g>
	<g>
		<path d="M362.35,379.805l-40.787-13.595c0.684-7.751,6.928-13.996,14.505-14.204c4.099-0.114,7.964,1.394,10.891,4.242    c2.929,2.85,4.542,6.668,4.542,10.752h30c0-12.253-4.837-23.708-13.621-32.254c-5.01-4.875-10.937-8.432-17.379-10.531V312h-30    v13.024c-16.887,6.62-29,23.364-29,42.6c0,12.075,7.696,22.753,19.151,26.571l40.788,13.596    c-0.654,7.543-6.48,13.644-13.801,14.168c-4.244,0.305-8.274-1.108-11.354-3.976c-3.085-2.872-4.784-6.772-4.784-10.983h-30    c0,12.449,5.228,24.456,14.342,32.941c4.276,3.98,9.273,7.044,14.658,9.09V462h30v-12.251c18.037-5.999,31-23.322,31-43.373    C381.501,394.301,373.805,383.623,362.35,379.805z" fill="#FFFFFF"/>
	</g>
</g>
<g>
</g>
<g>
</g>
<g>
</g>
<g>
</g>
<g>
</g>
<g>
</g>
<g>
</g>
<g>
</g>
<g>
</g>
<g>
</g>
<g>
</g>
<g>
</g>
<g>
</g>
<g>
</g>
<g>
</g>
</svg>
