<?xml version="1.0" encoding="iso-8859-1"?>
<!-- Generator: Adobe Illustrator 19.0.0, SVG Export Plug-In . SVG Version: 6.00 Build 0)  -->
<svg xmlns="http://www.w3.org/2000/svg" xmlns:xlink="http://www.w3.org/1999/xlink" version="1.1" id="Capa_1" x="0px" y="0px" viewBox="0 0 512 512" style="enable-background:new 0 0 512 512;" xml:space="preserve" width="512px" height="512px">
<g>
	<g>
		<path d="M504,80H8c-4.418,0-8,3.582-8,8v336c0,4.418,3.582,8,8,8h496c4.418,0,8-3.582,8-8V88C512,83.582,508.418,80,504,80z     M496,416H16V96h480V416z" fill="#FFFFFF"/>
	</g>
</g>
<g>
	<g>
		<path d="M498.856,81.872L256,285.6L13.144,81.872L2.856,94.128l248,208c1.441,1.209,3.263,1.872,5.144,1.872    c1.881,0,3.703-0.663,5.144-1.872l248-208L498.856,81.872z" fill="#FFFFFF"/>
	</g>
</g>
<g>
	<g>
		
			<rect x="-29.877" y="324.554" transform="matrix(0.7071 -0.7071 0.7071 0.7071 -206.0251 167.7203)" width="258.641" height="16" fill="#FFFFFF"/>
	</g>
</g>
<g>
	<g>
		
			<rect x="404.542" y="203.181" transform="matrix(0.7071 -0.7071 0.7071 0.7071 -114.3116 389.1107)" width="16" height="258.721" fill="#FFFFFF"/>
	</g>
</g>
<g>
</g>
<g>
</g>
<g>
</g>
<g>
</g>
<g>
</g>
<g>
</g>
<g>
</g>
<g>
</g>
<g>
</g>
<g>
</g>
<g>
</g>
<g>
</g>
<g>
</g>
<g>
</g>
<g>
</g>
</svg>
