<svg xmlns="http://www.w3.org/2000/svg" viewBox="27 1405 20.138 17.217">
  <defs>
    <style>
      .cls-1 {
        fill: #fff;
        opacity: 0.6;
      }
    </style>
  </defs>
  <path id="Path_425" data-name="Path 425" class="cls-1" d="M19.822,3.177a1.689,1.689,0,0,0-1.334-.635H4.892l-.127-.762A2.071,2.071,0,0,0,2.668,0H.635A.6.6,0,0,0,0,.635a.6.6,0,0,0,.635.635H2.668a.879.879,0,0,1,.826.7L4.7,9.784c.064.191.127.445.191.635l.445,1.97a2.48,2.48,0,0,0,1.525,1.652,1.981,1.981,0,0,0-.572,1.334,1.842,1.842,0,1,0,3.685,0,2.006,2.006,0,0,0-.445-1.207h5.4a1.677,1.677,0,0,0-.445,1.207,1.842,1.842,0,0,0,3.685,0,2.006,2.006,0,0,0-.445-1.207h.064a.635.635,0,0,0,0-1.271H7.56a1.173,1.173,0,0,1-.953-.762l-.127-.572H16.646a2.249,2.249,0,0,0,2.16-1.715l1.271-5.337A1.454,1.454,0,0,0,19.822,3.177Zm-3.431,12.77a.572.572,0,1,1,.572-.572A.533.533,0,0,1,16.391,15.947Zm-8.2,0a.572.572,0,1,1,.572-.572A.533.533,0,0,1,8.2,15.947ZM18.869,4.257,17.6,9.593a1.094,1.094,0,0,1-.953.762H6.862a1.1,1.1,0,0,1-.7-.381L5.845,8.45,5.083,3.812H18.488a.485.485,0,0,1,.318.127A.476.476,0,0,1,18.869,4.257Z" transform="translate(27 1405)"/>
</svg>
