<svg xmlns="http://www.w3.org/2000/svg" viewBox="-1345 -3291 13.777 13.778">
  <defs>
    <style>
      .cls-1 {
        fill: #fff;
      }
    </style>
  </defs>
  <g id="Group_9" data-name="Group 9" transform="translate(-1479 -3638)">
    <path id="Path_21" data-name="Path 21" class="cls-1" d="M14.292,24.583a1.292,1.292,0,1,1,1.292-1.292A1.269,1.269,0,0,1,14.292,24.583Zm0-1.722a.431.431,0,1,0,.431.431A.407.407,0,0,0,14.292,22.861Z" transform="translate(126.597 333.472)"/>
    <path id="Path_22" data-name="Path 22" class="cls-1" d="M6.889,13.778a6.889,6.889,0,1,1,6.889-6.889A6.909,6.909,0,0,1,6.889,13.778Zm0-12.916a6.028,6.028,0,1,0,6.028,6.028A6.045,6.045,0,0,0,6.889.861Z" transform="translate(134 347)"/>
    <path id="Path_23" data-name="Path 23" class="cls-1" d="M13.9,9.6a.407.407,0,0,1-.431-.431,4.305,4.305,0,1,0-8.611,0,.407.407,0,0,1-.431.431A.407.407,0,0,1,4,9.167a5.167,5.167,0,0,1,10.333,0A.407.407,0,0,1,13.9,9.6Z" transform="translate(131.722 344.722)"/>
    <path id="Path_24" data-name="Path 24" class="cls-1" d="M15.958,14.549h-.086c-.215-.035-.387-.247-.3-.423l1.292-4.513a.423.423,0,0,1,.517-.247.4.4,0,0,1,.344.423L16.431,14.3A.857.857,0,0,1,15.958,14.549Z" transform="translate(125.146 341.677)"/>
  </g>
</svg>
