<svg xmlns="http://www.w3.org/2000/svg" viewBox="27 1256 20.703 17.468">
  <defs>
    <style>
      .cls-1 {
        opacity: 0.6;
      }

      .cls-2 {
        fill: #fff;
      }
    </style>
  </defs>
  <g id="Group_645" data-name="Group 645" class="cls-1" transform="translate(26.877 1256)">
    <g id="Group_609" data-name="Group 609" transform="translate(0.123)">
      <path id="Path_410" data-name="Path 410" class="cls-2" d="M17.79,9.2a3.134,3.134,0,0,1-2.444-1.222A2.934,2.934,0,0,1,12.9,9.2a3.134,3.134,0,0,1-2.444-1.222A2.934,2.934,0,0,1,8.014,9.2,3.134,3.134,0,0,1,5.57,7.979,2.934,2.934,0,0,1,3.126,9.2,3.367,3.367,0,0,1,.538,8.051a1.68,1.68,0,0,1-.359-1.51A19.255,19.255,0,0,1,1.616,2.156,2.913,2.913,0,0,1,4.348,0H16.424a2.935,2.935,0,0,1,2.732,2.085,23.008,23.008,0,0,1,1.653,4.457,2.14,2.14,0,0,1-.431,1.581A3.571,3.571,0,0,1,17.79,9.2ZM15.274,6.038h.072a.61.61,0,0,1,.575.5,1.846,1.846,0,0,0,1.8,1.51,2.216,2.216,0,0,0,1.653-.719.6.6,0,0,0,.144-.575,19.34,19.34,0,0,0-1.581-4.169c.072-.072.072-.072.072-.144A1.852,1.852,0,0,0,16.424,1.15H4.276A1.684,1.684,0,0,0,2.694,2.444v.072A29.485,29.485,0,0,0,1.257,6.757a.7.7,0,0,0,.144.575,2.34,2.34,0,0,0,1.653.719,1.846,1.846,0,0,0,1.8-1.51.61.61,0,0,1,.575-.5H5.5a.61.61,0,0,1,.575.5,1.824,1.824,0,0,0,3.594,0,.61.61,0,0,1,.575-.5h.072a.61.61,0,0,1,.575.5,1.824,1.824,0,0,0,3.594,0C14.771,6.254,14.986,6.038,15.274,6.038ZM2.119,2.3Z" transform="translate(-0.123)"/>
    </g>
    <g id="Group_610" data-name="Group 610" transform="translate(0.969 9.632)">
      <path id="Path_411" data-name="Path 411" class="cls-2" d="M18.983,13.975v4.313a1.78,1.78,0,0,1-1.8,1.8H4.247a1.78,1.78,0,0,1-1.8-1.8V13.975L1.3,13.4v4.888a2.915,2.915,0,0,0,2.947,2.947H17.186a2.915,2.915,0,0,0,2.947-2.947V13.4Z" transform="translate(-1.3 -13.4)"/>
    </g>
    <g id="Group_611" data-name="Group 611" transform="translate(7.007 11.142)">
      <path id="Path_412" data-name="Path 412" class="cls-2" d="M16.1,21.323a.567.567,0,0,1-.575-.575V17.3a.567.567,0,0,0-.575-.575H11.425a.567.567,0,0,0-.575.575v3.45a.575.575,0,0,1-1.15,0V17.3a1.78,1.78,0,0,1,1.8-1.8h3.45a1.78,1.78,0,0,1,1.8,1.8v3.45A.587.587,0,0,1,16.1,21.323Z" transform="translate(-9.7 -15.5)"/>
    </g>
  </g>
</svg>
