<svg xmlns="http://www.w3.org/2000/svg" viewBox="30 1354 15.136 18.919">
  <defs>
    <style>
      .cls-1 {
        opacity: 0.6;
      }

      .cls-2 {
        fill: #fff;
      }
    </style>
  </defs>
  <g id="Group_642" data-name="Group 642" class="cls-1" transform="translate(30 1354)">
    <g id="Group_39" data-name="Group 39" transform="translate(0 0)">
      <g id="Group_36" data-name="Group 36" transform="translate(0 0.003)">
        <g id="Group_35" data-name="Group 35">
          <path id="Path_46" data-name="Path 46" class="cls-2" d="M11.981,18.917H3.153A3.122,3.122,0,0,1,0,15.764V3.153A3.122,3.122,0,0,1,3.153,0H9.458a.6.6,0,0,1,.631.631.6.6,0,0,1-.631.631H3.153A1.858,1.858,0,0,0,1.261,3.153V15.764a1.858,1.858,0,0,0,1.892,1.892h8.828a1.858,1.858,0,0,0,1.892-1.892V5.675a.631.631,0,1,1,1.261,0V15.764A3.122,3.122,0,0,1,11.981,18.917Z"/>
        </g>
      </g>
      <g id="Group_38" data-name="Group 38" transform="translate(8.828)">
        <g id="Group_37" data-name="Group 37">
          <path id="Path_47" data-name="Path 47" class="cls-2" d="M19.675,6.3H14.631A.6.6,0,0,1,14,5.673V.629a.551.551,0,0,1,.378-.567.576.576,0,0,1,.694.126l5.044,5.044a.576.576,0,0,1,.126.694A.551.551,0,0,1,19.675,6.3ZM15.261,5.043h2.9l-2.9-2.9Z" transform="translate(-14 0.004)"/>
        </g>
      </g>
    </g>
    <g id="Group_40" data-name="Group 40" transform="translate(3.783 8.2)">
      <path id="Path_48" data-name="Path 48" class="cls-2" d="M12.936,14.261H6.631a.631.631,0,0,1,0-1.261h6.306a.6.6,0,0,1,.631.631A.632.632,0,0,1,12.936,14.261Z" transform="translate(-6 -13)"/>
    </g>
    <g id="Group_41" data-name="Group 41" transform="translate(3.783 10.722)">
      <path id="Path_49" data-name="Path 49" class="cls-2" d="M12.936,18.261H6.631a.631.631,0,0,1,0-1.261h6.306a.631.631,0,1,1,0,1.261Z" transform="translate(-6 -17)"/>
    </g>
    <g id="Group_42" data-name="Group 42" transform="translate(3.783 13.244)">
      <path id="Path_50" data-name="Path 50" class="cls-2" d="M12.936,22.261H6.631a.631.631,0,1,1,0-1.261h6.306a.631.631,0,1,1,0,1.261Z" transform="translate(-6 -21)"/>
    </g>
  </g>
</svg>
