<svg xmlns="http://www.w3.org/2000/svg" viewBox="28 15405 20.703 21.347">
  <defs>
    <style>
      .cls-1 {
        fill: #fff;
      }
    </style>
  </defs>
  <path id="Path_672" data-name="Path 672" class="cls-1" d="M10.3,21.347a.733.733,0,0,1-.751-.751V18.612a8.352,8.352,0,0,1-5.1-2.36,8.218,8.218,0,0,1-2.36-5.1H.751a.751.751,0,1,1,0-1.5H2.092A8.151,8.151,0,0,1,9.547,2.2V.751a.751.751,0,1,1,1.5,0V2.2A8.151,8.151,0,0,1,18.5,9.654h1.448a.751.751,0,0,1,0,1.5H18.5a8.352,8.352,0,0,1-2.36,5.1,8.352,8.352,0,0,1-5.1,2.36V20.6A.733.733,0,0,1,10.3,21.347Zm0-5.793a.733.733,0,0,1,.751.751v.858A6.73,6.73,0,0,0,17,11.21H15.662a.751.751,0,0,1,0-1.5H17a6.631,6.631,0,0,0-1.931-4.023,6.775,6.775,0,0,0-4.023-1.931V5.1a.751.751,0,0,1-1.5,0V3.7A6.73,6.73,0,0,0,3.594,9.654H5.042a.751.751,0,0,1,0,1.5H3.594A6.73,6.73,0,0,0,9.547,17.11v-.8A.808.808,0,0,1,10.3,15.554Z" transform="translate(28 15405)"/>
</svg>
