<svg xmlns="http://www.w3.org/2000/svg" viewBox="27 1206 20.136 18.877">
  <defs>
    <style>
      .cls-1 {
        opacity: 0.6;
      }

      .cls-2 {
        fill: #fff;
      }
    </style>
  </defs>
  <g id="Group_646" data-name="Group 646" class="cls-1" transform="translate(27 1206)">
    <g id="Group_613" data-name="Group 613">
      <path id="Path_413" data-name="Path 413" class="cls-2" d="M16.99,18.877H3.146A3.116,3.116,0,0,1,0,15.731V3.146A3.116,3.116,0,0,1,3.146,0H16.99a3.116,3.116,0,0,1,3.146,3.146V15.731A3.116,3.116,0,0,1,16.99,18.877ZM3.146,1.258A1.854,1.854,0,0,0,1.258,3.146V15.731a1.854,1.854,0,0,0,1.888,1.888H16.99a1.854,1.854,0,0,0,1.888-1.888V3.146A1.854,1.854,0,0,0,16.99,1.258Z"/>
    </g>
    <g id="Group_614" data-name="Group 614" transform="translate(13.843 3.775)">
      <path id="Path_414" data-name="Path 414" class="cls-2" d="M22.629,17.326A.594.594,0,0,1,22,16.7V6.629a.629.629,0,1,1,1.258,0V16.7A.594.594,0,0,1,22.629,17.326Z" transform="translate(-22 -6)"/>
    </g>
    <g id="Group_615" data-name="Group 615" transform="translate(12.585 8.809)">
      <path id="Path_415" data-name="Path 415" class="cls-2" d="M23.146,15.258H20.629a.629.629,0,0,1,0-1.258h2.517a.629.629,0,0,1,0,1.258Z" transform="translate(-20 -14)"/>
    </g>
    <g id="Group_618" data-name="Group 618" transform="translate(8.18 3.775)">
      <g id="Group_616" data-name="Group 616" transform="translate(1.258)">
        <path id="Path_416" data-name="Path 416" class="cls-2" d="M15.629,17.326A.594.594,0,0,1,15,16.7V6.629a.629.629,0,1,1,1.258,0V16.7A.594.594,0,0,1,15.629,17.326Z" transform="translate(-15 -6)"/>
      </g>
      <g id="Group_617" data-name="Group 617" transform="translate(0 2.517)">
        <path id="Path_417" data-name="Path 417" class="cls-2" d="M16.146,11.258H13.629a.629.629,0,0,1,0-1.258h2.517a.629.629,0,1,1,0,1.258Z" transform="translate(-13 -10)"/>
      </g>
    </g>
    <g id="Group_621" data-name="Group 621" transform="translate(3.775 3.775)">
      <g id="Group_619" data-name="Group 619" transform="translate(1.258)">
        <path id="Path_418" data-name="Path 418" class="cls-2" d="M8.629,17.326A.594.594,0,0,1,8,16.7V6.629a.629.629,0,1,1,1.258,0V16.7A.594.594,0,0,1,8.629,17.326Z" transform="translate(-8 -6)"/>
      </g>
      <g id="Group_620" data-name="Group 620" transform="translate(0 6.922)">
        <path id="Path_419" data-name="Path 419" class="cls-2" d="M9.146,18.258H6.629a.629.629,0,0,1,0-1.258H9.146a.629.629,0,1,1,0,1.258Z" transform="translate(-6 -17)"/>
      </g>
    </g>
  </g>
</svg>
