<svg xmlns="http://www.w3.org/2000/svg" viewBox="29 1302 16.319 21.782">
  <defs>
    <style>
      .cls-1 {
        opacity: 0.6;
      }

      .cls-2 {
        fill: #fff;
      }
    </style>
  </defs>
  <g id="Group_641" data-name="Group 641" class="cls-1" transform="translate(28.96 1302)">
    <path id="Path_403" data-name="Path 403" class="cls-2" d="M16.281,21.727l-.817-4.833a.778.778,0,0,0-.476-.545l-3.744-1.906a4.382,4.382,0,0,0,1.429-3.2V10.7H11.38v.545a3.132,3.132,0,0,1-6.262,0V10.7H3.757v.545a4.468,4.468,0,0,0,1.361,3.2l-3.88,1.974H1.17a.067.067,0,0,0-.068.068l-.068.068a.238.238,0,0,0-.068.136c0,.068-.068.068-.068.136v.068L.081,21.727a3.129,3.129,0,0,0,.613,2.45A2.811,2.811,0,0,0,2.94,25.2H13.49a2.811,2.811,0,0,0,2.246-1.021A2.855,2.855,0,0,0,16.281,21.727Zm-1.566,1.566a1.594,1.594,0,0,1-1.225.545H2.872a1.594,1.594,0,0,1-1.225-.545,1.781,1.781,0,0,1-.272-1.361l.817-4.493,4.288-2.178a5.113,5.113,0,0,0,1.77.34,5.113,5.113,0,0,0,1.77-.34l4.288,2.178.817,4.424A2.74,2.74,0,0,1,14.716,23.293Z" transform="translate(0 -3.417)"/>
    <path id="Path_404" data-name="Path 404" class="cls-2" d="M1.781,5.922H15.122a.643.643,0,0,0,.681-.681.643.643,0,0,0-.681-.681H12.876V4.424A4.316,4.316,0,0,0,8.519,0,4.416,4.416,0,0,0,4.1,4.424v.136H1.781a.643.643,0,0,0-.681.681A.682.682,0,0,0,1.781,5.922Zm3.608-1.5a3.132,3.132,0,0,1,6.262,0v.136H5.388Z" transform="translate(-0.338)"/>
  </g>
</svg>
