<svg xmlns="http://www.w3.org/2000/svg" viewBox="-859.455 -765.273 8.727 8.727">
  <defs>
    <style>
      .cls-1 {
        fill: #fff;
      }
    </style>
  </defs>
  <path id="Path_105" data-name="Path 105" class="cls-1" d="M8.506,7.782,5.137,4.391,8.562.945a.54.54,0,0,0,0-.778.532.532,0,0,0-.773,0L4.364,3.558.939.167a.532.532,0,0,0-.773,0,.54.54,0,0,0,0,.778L3.59,4.391.166,7.782a.54.54,0,0,0,0,.778.6.6,0,0,0,.387.167.5.5,0,0,0,.387-.167L4.364,5.114,7.788,8.561a.532.532,0,0,0,.773,0,.6.6,0,0,0,.166-.389A1.4,1.4,0,0,0,8.506,7.782Z" transform="translate(-859.455 -765.273)"/>
</svg>
