<svg xmlns="http://www.w3.org/2000/svg" viewBox="4524 3349 6.625 6.583">
  <defs>
    <style>
      .cls-1 {
        fill: #c43737;
      }
    </style>
  </defs>
  <path id="Path_426" data-name="Path 426" class="cls-1" d="M6.458,5.871,3.9,3.313,6.5.713a.405.405,0,0,0,0-.587.405.405,0,0,0-.587,0l-2.6,2.558L.713.126a.405.405,0,0,0-.587,0,.405.405,0,0,0,0,.587l2.6,2.6L.126,5.871a.405.405,0,0,0,0,.587.453.453,0,0,0,.294.126.381.381,0,0,0,.294-.126l2.6-2.6,2.6,2.6a.405.405,0,0,0,.587,0,.453.453,0,0,0,.126-.294A1.051,1.051,0,0,0,6.458,5.871Z" transform="translate(4524 3349)"/>
</svg>
