<svg xmlns="http://www.w3.org/2000/svg" viewBox="-894.97 -767.304 12.384 12.79">
  <defs>
    <style>
      .cls-1 {
        fill: #a7a7a7;
      }
    </style>
  </defs>
  <g id="Group_175" data-name="Group 175" transform="translate(-895.304 -765.223) rotate(-11)">
    <path id="Path_89" data-name="Path 89" class="cls-1" d="M2.761,3.1A.309.309,0,0,1,2.523,3L.1.58A.33.33,0,0,1,.1.1.33.33,0,0,1,.58.1L3,2.523A.33.33,0,0,1,3,3,.309.309,0,0,1,2.761,3.1Z" transform="translate(6.614 1.159)"/>
    <path id="Path_90" data-name="Path 90" class="cls-1" d="M.341,1.534a.309.309,0,0,1-.239-.1A.33.33,0,0,1,.1.955L.92.1A.33.33,0,0,1,1.4.1.33.33,0,0,1,1.4.58L.58,1.432A.309.309,0,0,1,.341,1.534Z" transform="translate(0 9.375)"/>
    <path id="Path_91" data-name="Path 91" class="cls-1" d="M2.761,3.068a.322.322,0,0,1-.341-.341,1.9,1.9,0,0,0-.545-1.466A2.088,2.088,0,0,0,.341.682.342.342,0,0,1,0,.341.322.322,0,0,1,.341,0,3.1,3.1,0,0,1,2.352.784,2.728,2.728,0,0,1,3.1,2.761.336.336,0,0,1,2.761,3.068Z" transform="translate(1.636 6.17)"/>
    <path id="Path_92" data-name="Path 92" class="cls-1" d="M1.432,10.534a.648.648,0,0,1-.443-.17L.17,9.545a.661.661,0,0,1,0-.886l.341-.341L1.3,6.375c.034-.034.034-.068.068-.1L7.057.614a2.058,2.058,0,0,1,2.932,0,2.01,2.01,0,0,1,.58,1.432,1.908,1.908,0,0,1-.614,1.432L4.3,9.17c-.034.034-.068.068-.1.068l-1.943.784-.341.341A.9.9,0,0,1,1.432,10.534ZM.716,9.1l.716.716.375-.375c.034-.034.068-.068.1-.068l1.943-.784L9.477,3a1.238,1.238,0,0,0,.409-.955,1.238,1.238,0,0,0-.409-.955,1.318,1.318,0,0,0-1.909,0L1.909,6.682,1.125,8.625c-.034.034-.034.068-.068.1Z" transform="translate(0.341 0)"/>
  </g>
</svg>
