<svg xmlns="http://www.w3.org/2000/svg" viewBox="1164 11433 13.542 7.255">
  <defs>
    <style>
      .cls-1 {
        fill: #a7a7a7;
      }
    </style>
  </defs>
  <g id="Group_1342" data-name="Group 1342" transform="translate(1164 11433)">
    <g id="Group_1340" data-name="Group 1340">
      <path id="Path_757" data-name="Path 757" class="cls-1" d="M6.771,7.254C3.184,7.254.322,4.03.2,3.909L0,3.627l.242-.282C.363,3.224,3.184,0,6.771,0s6.448,3.224,6.569,3.345l.2.282-.242.282C13.219,4.03,10.358,7.254,6.771,7.254ZM1.088,3.627c.725.766,3.023,2.821,5.683,2.821s4.957-2.055,5.683-2.821C11.728,2.861,9.431.806,6.771.806S1.814,2.861,1.088,3.627Z"/>
    </g>
    <path id="Path_758" data-name="Path 758" class="cls-1" d="M13.994,8.088a1.894,1.894,0,1,1,1.894-1.894A1.892,1.892,0,0,1,13.994,8.088Zm0-2.982a1.088,1.088,0,1,0,1.088,1.088A1.084,1.084,0,0,0,13.994,5.106Z" transform="translate(-7.223 -2.567)"/>
  </g>
</svg>
