<svg xmlns="http://www.w3.org/2000/svg" viewBox="4690 3305 14.139 14.139">
  <defs>
    <style>
      .cls-1 {
        fill: #79be75;
      }
    </style>
  </defs>
  <path id="Path_342" data-name="Path 342" class="cls-1" d="M9.775,8.887,5.9,5.015,9.839,1.079a.614.614,0,0,0,0-.889.614.614,0,0,0-.889,0L5.015,4.062,1.079.19A.614.614,0,0,0,.19.19a.614.614,0,0,0,0,.889L4.126,5.015.19,8.887a.614.614,0,0,0,0,.889.686.686,0,0,0,.444.19.576.576,0,0,0,.444-.19L5.015,5.84,8.95,9.775a.614.614,0,0,0,.889,0,.686.686,0,0,0,.19-.444A1.591,1.591,0,0,0,9.775,8.887Z" transform="translate(4697.047 3305) rotate(45)"/>
</svg>
