<svg xmlns="http://www.w3.org/2000/svg" viewBox="1198 1225 9.365 12.486">
  <defs>
    <style>
      .cls-1 {
        fill: #a7a7a7;
      }
    </style>
  </defs>
  <g id="Group_687" data-name="Group 687" transform="translate(1198 1225)">
    <g id="Group_685" data-name="Group 685" transform="translate(0 5.463)">
      <g id="Group_683" data-name="Group 683">
        <g id="Group_681" data-name="Group 681" transform="translate(0 1.249)">
          <path id="Path_448" data-name="Path 448" class="cls-1" d="M7.414,22.975H1.951A1.932,1.932,0,0,1,0,21.024V17.59a.369.369,0,0,1,.39-.39.369.369,0,0,1,.39.39v3.434a1.15,1.15,0,0,0,1.171,1.171H7.414a1.15,1.15,0,0,0,1.171-1.171V17.59a.39.39,0,1,1,.78,0v3.434A1.932,1.932,0,0,1,7.414,22.975Z" transform="translate(0 -17.2)"/>
        </g>
        <g id="Group_682" data-name="Group 682">
          <path id="Path_449" data-name="Path 449" class="cls-1" d="M8.974,16.458a.369.369,0,0,1-.39-.39V14.78H.78v1.288a.369.369,0,0,1-.39.39.369.369,0,0,1-.39-.39V14.39A.369.369,0,0,1,.39,14H8.974a.369.369,0,0,1,.39.39v1.678A.369.369,0,0,1,8.974,16.458Z" transform="translate(0 -14)"/>
        </g>
      </g>
      <g id="Group_684" data-name="Group 684" transform="translate(3.121 1.951)">
        <path id="Path_450" data-name="Path 450" class="cls-1" d="M9.561,22.121a1.561,1.561,0,1,1,1.561-1.561A1.565,1.565,0,0,1,9.561,22.121Zm0-2.341a.78.78,0,1,0,.78.78A.783.783,0,0,0,9.561,19.78Z" transform="translate(-8 -19)"/>
      </g>
    </g>
    <g id="Group_686" data-name="Group 686">
      <path id="Path_451" data-name="Path 451" class="cls-1" d="M1.288,6.126a.354.354,0,0,1-.273-.117A3.51,3.51,0,0,1,0,3.512a3.532,3.532,0,0,1,6.009-2.5L7.531,2.536a.386.386,0,1,1-.546.546L5.463,1.6A2.685,2.685,0,0,0,3.512.78,2.685,2.685,0,0,0,1.561,1.6,2.651,2.651,0,0,0,.78,3.512,2.538,2.538,0,0,0,1.6,5.424a.377.377,0,0,1,0,.546A.355.355,0,0,1,1.288,6.126Z"/>
    </g>
  </g>
</svg>
